{
  "accessors": [
    {
      "bufferView": 2,
      "componentType": 5126,
      "count": 9731,
      "max": [
        14.399999618530273,
        0.5,
        -0.5
      ],
      "min": [
        -1.0,
        -6.5,
        -240.5
      ],
      "type": "VEC3"
    },
    {
      "bufferView": 2,
      "byteOffset": 116772,
      "componentType": 5126,
      "count": 9731,
      "max": [
        1.0,
        1.0,
        1.0
      ],
      "min": [
        -1.0,
        -1.0,
        -1.0
      ],
      "type": "VEC3"
    },
    {
      "bufferView": 1,
      "componentType": 5126,
      "count": 9731,
      "max": [
        14.399999618530273,
        15.0
      ],
      "min": [
        -7.699999809265137,
        -15.5
      ],
      "type": "VEC2"
    },
    {
      "bufferView": 0,
      "componentType": 5125,
      "count": 20280,
      "type": "SCALAR"
    },
    {
      "bufferView": 2,
      "byteOffset": 233544,
      "componentType": 5126,
      "count": 2548,
      "max": [
        14.399999618530273,
        0.5,
        -0.5
      ],
      "min": [
        -1.0,
        -6.5,
        -240.5
      ],
      "type": "VEC3"
    },
    {
      "bufferView": 2,
      "byteOffset": 264120,
      "componentType": 5126,
      "count": 2548,
      "max": [
        1.0,
        1.0,
        1.0
      ],
      "min": [
        -1.0,
        -1.0,
        -1.0
      ],
      "type": "VEC3"
    },
    {
      "bufferView": 1,
      "byteOffset": 77848,
      "componentType": 5126,
      "count": 2548,
      "max": [
        14.399999618530273,
        15.0
      ],
      "min": [
        -7.699999809265137,
        -15.5
      ],
      "type": "VEC2"
    },
    {
      "bufferView": 0,
      "byteOffset": 81120,
      "componentType": 5125,
      "count": 4680,
      "type": "SCALAR"
    }
  ],
  "asset": {
    "extras": {
      "author": "spikico (https://sketchfab.com/spikico)",
      "license": "CC-BY-4.0 (http://creativecommons.org/licenses/by/4.0/)",
      "source": "https://sketchfab.com/3d-models/dsfs2-tunnel-final-99d92ea8357846fd848e8227210899e3",
      "title": "DSFS2 Tunnel Final"
    },
    "generator": "Sketchfab-13.74.0",
    "version": "2.0"
  },
  "bufferViews": [
    {
      "buffer": 0,
      "byteLength": 99840,
      "name": "floatBufferViews",
      "target": 34963
    },
    {
      "buffer": 0,
      "byteLength": 98232,
      "byteOffset": 99840,
      "byteStride": 8,
      "name": "floatBufferViews",
      "target": 34962
    },
    {
      "buffer": 0,
      "byteLength": 294696,
      "byteOffset": 198072,
      "byteStride": 12,
      "name": "floatBufferViews",
      "target": 34962
    }
  ],
  "buffers": [
    {
      "byteLength": 492768,
      "uri": "scene.bin"
    }
  ],
  "materials": [
    {
      "doubleSided": true,
      "name": "material_0",
      "pbrMetallicRoughness": {
        "metallicFactor": 0.0,
        "roughnessFactor": 0.6
      }
    }
  ],
  "meshes": [
    {
      "name": "Object_0",
      "primitives": [
        {
          "attributes": {
            "NORMAL": 1,
            "POSITION": 0,
            "TEXCOORD_0": 2
          },
          "indices": 3,
          "material": 0,
          "mode": 4
        }
      ]
    },
    {
      "name": "Object_1",
      "primitives": [
        {
          "attributes": {
            "NORMAL": 5,
            "POSITION": 4,
            "TEXCOORD_0": 6
          },
          "indices": 7,
          "material": 0,
          "mode": 4
        }
      ]
    }
  ],
  "nodes": [
    {
      "children": [
        1
      ],
      "matrix": [
        0.5684424638748169,
        2.0297656577892836e-32,
        -9.141251860069247e-17,
        0.0,
        -1.401318864432345e-32,
        -0.5684424638748169,
        -2.524391646273902e-16,
        0.0,
        -9.141251860069247e-17,
        2.524391646273902e-16,
        -0.5684424638748169,
        0.0,
        0.0,
        0.0,
        0.0,
        1.0
      ],
      "name": "Sketchfab_model"
    },
    {
      "children": [
        2,
        3
      ],
      "name": "DSFS2 Tunnel Final.obj.cleaner.materialmerger.gles"
    },
    {
      "mesh": 0,
      "name": "Object_2"
    },
    {
      "mesh": 1,
      "name": "Object_3"
    }
  ],
  "scene": 0,
  "scenes": [
    {
      "name": "Sketchfab_Scene",
      "nodes": [
        0
      ]
    }
  ]
}
